<?xml version="1.0" encoding="utf-8"?>
<!-- Generator: Adobe Illustrator 24.3.0, SVG Export Plug-In . SVG Version: 6.00 Build 0)  -->
<svg version="1.1" id="Layer_1" xmlns="http://www.w3.org/2000/svg" xmlns:xlink="http://www.w3.org/1999/xlink" x="0px" y="0px"
	 viewBox="0 0 150 100" style="enable-background:new 0 0 150 100;" xml:space="preserve">
<style type="text/css">
	.st0{clip-path:url(#SVGID_2_);fill:#A6A6A6;}
	.st1{clip-path:url(#SVGID_4_);}
	.st2{fill:#FFFFFF;}
	.st3{fill:#5798D6;}
	.st4{fill:#A6A6A6;}
</style>
<g>
	<g>
		<defs>
			<rect id="SVGID_1_" x="1.46" y="2.73" width="78.96" height="49.64"/>
		</defs>
		<clipPath id="SVGID_2_">
			<use xlink:href="#SVGID_1_"  style="overflow:visible;"/>
		</clipPath>
		<rect x="-3.91" y="-5.62" class="st0" width="90.23" height="60.48"/>
	</g>
	<g>
		<defs>
			<rect id="SVGID_3_" x="1.46" y="2.73" width="78.96" height="49.64"/>
		</defs>
		<clipPath id="SVGID_4_">
			<use xlink:href="#SVGID_3_"  style="overflow:visible;"/>
		</clipPath>
		<g class="st1">
			<polygon class="st2" points="42.26,26.58 54.12,26.58 54.12,16.02 51.44,16.02 			"/>
			<polygon class="st3" points="44.98,6.25 66.56,6.25 66.56,40.6 86.29,40.6 86.29,-5.57 -3.87,-5.57 -3.87,54.86 0.73,54.82 			
				"/>
			<polygon class="st2" points="17.79,54.89 54.12,54.89 54.12,37.45 32.82,37.45 			"/>
		</g>
	</g>
</g>
<g>
	<path class="st3" d="M5.22,62.53l-0.31-1.38H3.26l-0.3,1.38H1.34l1.93-8.24h1.7l1.98,8.24H5.22z M4.66,59.87
		c-0.17-0.79-0.35-1.57-0.47-2.37c-0.05-0.36-0.1-0.73-0.14-1.09c-0.07,1.16-0.31,2.31-0.54,3.46H4.66z"/>
	<path class="st3" d="M7.62,62.53v-8.24h1.63v6.7h1.7v1.54H7.62z"/>
	<path class="st3" d="M13.66,54.29c0.52,0,0.93,0.01,1.38,0.27c0.77,0.43,1.12,1.32,1.12,2.17c0,1.73-1.22,2.53-2.85,2.41v3.38
		h-1.63v-8.24L13.66,54.29L13.66,54.29z M13.42,57.77c0.74,0,1.14-0.26,1.14-1.05c0-0.65-0.22-1.11-0.95-1.11h-0.28v2.16H13.42z"/>
	<path class="st3" d="M20.33,62.53v-3.64h-1.64v3.64h-1.63v-8.24h1.63v3.05h1.64v-3.05h1.63v8.24L20.33,62.53L20.33,62.53z"/>
	<path class="st3" d="M26.52,62.53l-0.31-1.38h-1.64l-0.3,1.38h-1.63l1.93-8.24h1.7l1.98,8.24H26.52z M25.97,59.87
		c-0.17-0.79-0.35-1.57-0.47-2.37c-0.05-0.36-0.1-0.73-0.14-1.09c-0.07,1.16-0.31,2.31-0.54,3.46H25.97z"/>
	<path class="st3" d="M35.81,62.35c-0.36,0.2-0.68,0.26-1.12,0.26c-0.79,0-1.4-0.19-1.95-0.74c-0.58-0.58-1.11-1.59-1.11-3.34
		c0-0.83,0.1-2.41,1.19-3.51c0.68-0.68,1.42-0.83,1.98-0.83c0.37,0,0.7,0.09,1.03,0.23v1.68c-0.31-0.28-0.64-0.36-0.9-0.36
		c-0.43,0-0.72,0.19-0.9,0.37c-0.45,0.45-0.68,1.3-0.68,2.36c0,0.21,0,1.52,0.58,2.16c0.19,0.21,0.48,0.4,0.93,0.4
		c0.27,0,0.64-0.09,0.98-0.4L35.81,62.35L35.81,62.35z"/>
	<path class="st3" d="M40.36,62.53l-0.31-1.38H38.4l-0.3,1.38h-1.63l1.93-8.24h1.7l1.98,8.24L40.36,62.53L40.36,62.53z M39.8,59.87
		c-0.17-0.79-0.35-1.57-0.47-2.37c-0.05-0.36-0.1-0.73-0.14-1.09c-0.07,1.16-0.31,2.31-0.54,3.46H39.8z"/>
	<path class="st3" d="M45.84,62.53l-1.44-3.79v3.79h-1.63v-8.24h1.77c0.6,0,1.27,0.05,1.79,0.39c0.65,0.43,0.98,1.23,0.98,2
		c0,0.94-0.37,1.61-1.17,2.1l1.43,3.74L45.84,62.53L45.84,62.53z M44.39,57.83c0.09,0.01,0.19,0.01,0.27,0.01
		c0.7,0,1.05-0.48,1.05-1.15s-0.3-1.12-1.01-1.12h-0.31V57.83z"/>
	<path class="st3" d="M52,56.15c-0.33-0.28-0.72-0.53-1.17-0.53c-0.48,0-0.82,0.32-0.82,0.8c0,1.42,2.47,1.4,2.47,3.69
		c0,1.42-0.85,2.54-2.35,2.54c-0.51,0-1-0.14-1.42-0.42v-1.56c0.37,0.25,0.75,0.45,1.21,0.45c0.56,0,0.96-0.35,0.96-0.91
		c0-0.15-0.02-0.28-0.09-0.42c-0.15-0.31-0.6-0.58-0.88-0.77c-0.93-0.64-1.52-1.23-1.52-2.43c0-1.3,0.75-2.43,2.15-2.43
		c0.56,0,0.96,0.12,1.44,0.4L52,56.15L52,56.15z"/>
	<path class="st3" d="M59.59,62.53v-3.64h-1.64v3.64h-1.63v-8.24h1.63v3.05h1.64v-3.05h1.63v8.24L59.59,62.53L59.59,62.53z"/>
	<path class="st3" d="M62.5,62.53v-8.24h3.27v1.53h-1.64v1.78h1.44v1.56h-1.44v1.85h1.67v1.52H62.5z"/>
	<path class="st3" d="M69.96,62.53l-1.44-3.79v3.79h-1.63v-8.24h1.77c0.6,0,1.27,0.05,1.79,0.39c0.65,0.43,0.98,1.23,0.98,2
		c0,0.94-0.37,1.61-1.17,2.1l1.43,3.74L69.96,62.53L69.96,62.53z M68.52,57.83c0.09,0.01,0.19,0.01,0.27,0.01
		c0.7,0,1.05-0.48,1.05-1.15s-0.3-1.12-1.01-1.12h-0.31L68.52,57.83L68.52,57.83z"/>
	<path class="st3" d="M74.73,55.8v6.73H73.1V55.8h-1.27v-1.51H76v1.51L74.73,55.8L74.73,55.8z"/>
	<path class="st3" d="M80.24,56.15c-0.33-0.28-0.72-0.53-1.17-0.53c-0.48,0-0.82,0.32-0.82,0.8c0,1.42,2.47,1.4,2.47,3.69
		c0,1.42-0.85,2.54-2.35,2.54c-0.51,0-1-0.14-1.42-0.42v-1.56c0.37,0.25,0.75,0.45,1.21,0.45c0.56,0,0.96-0.35,0.96-0.91
		c0-0.15-0.02-0.28-0.09-0.42c-0.15-0.31-0.6-0.58-0.88-0.77c-0.93-0.64-1.52-1.23-1.52-2.43c0-1.3,0.75-2.43,2.15-2.43
		c0.56,0,0.96,0.12,1.44,0.4L80.24,56.15L80.24,56.15z"/>
</g>
<g>
	<path class="st4" d="M3.8,68.67v-2.33H2.75v2.33H1.71V63.4h1.04v1.95H3.8V63.4h1.04v5.27H3.8z"/>
	<path class="st4" d="M7.93,67.45c-0.01,0.37-0.16,0.78-0.38,1.01c-0.25,0.25-0.51,0.28-0.77,0.28c-0.29,0-0.58-0.05-0.85-0.32
		c-0.27-0.27-0.48-0.73-0.48-1.43c0-0.61,0.15-1.23,0.51-1.6c0.24-0.24,0.51-0.32,0.8-0.32c0.36,0,0.59,0.13,0.76,0.28
		C7.87,65.67,8,66.25,8,66.73c0,0.11-0.01,0.23-0.02,0.35H6.41c-0.01,0.06-0.01,0.13-0.01,0.2c0,0.23,0.03,0.51,0.14,0.62
		C6.6,67.96,6.67,68,6.75,68s0.15-0.02,0.2-0.06c0.11-0.09,0.14-0.37,0.15-0.48H7.93z M7.14,66.47c0-0.21-0.05-0.48-0.16-0.58
		c-0.06-0.05-0.13-0.07-0.18-0.07c-0.09,0-0.17,0.04-0.22,0.09c-0.1,0.11-0.15,0.38-0.15,0.55H7.14z"/>
	<path class="st4" d="M10.32,65.97c-0.05-0.01-0.09-0.02-0.14-0.02c-0.59,0-0.67,0.33-0.67,0.85v1.87H8.52v-3.53h0.99v0.43
		c0.22-0.32,0.41-0.5,0.81-0.56L10.32,65.97L10.32,65.97z"/>
	<path class="st4" d="M11.91,65.96v2.71h-0.99v-2.71h-0.34v-0.82h0.34v-1h0.99v1h0.4v0.82H11.91z"/>
	<path class="st4" d="M14.3,66.09c-0.13-0.13-0.27-0.24-0.47-0.24c-0.15,0-0.25,0.1-0.25,0.25c0,0.43,1.11,0.34,1.11,1.41
		c0,0.67-0.4,1.22-1.11,1.22c-0.41,0-0.76-0.16-1.07-0.4l0.43-0.7c0.14,0.12,0.29,0.22,0.48,0.22c0.17,0,0.32-0.11,0.32-0.29
		c0-0.44-1.15-0.38-1.15-1.44c0-0.68,0.55-1.04,1.18-1.04c0.37,0,0.64,0.09,0.94,0.3L14.3,66.09z"/>
	<path class="st4" d="M18.12,68.67v-2.12c0-0.17-0.02-0.5-0.25-0.5c-0.29,0-0.25,0.42-0.25,0.62v2h-0.99v-2.19
		c0-0.16-0.01-0.41-0.23-0.41c-0.28,0-0.28,0.34-0.28,0.54v2.06h-0.99v-3.53h0.99v0.57c0.2-0.34,0.45-0.63,0.88-0.63
		c0.38,0,0.54,0.27,0.62,0.6c0.17-0.31,0.47-0.6,0.84-0.6c0.57,0,0.66,0.51,0.66,0.97v2.62H18.12z"/>
	<path class="st4" d="M22.09,67.45c-0.01,0.37-0.16,0.78-0.38,1.01c-0.25,0.25-0.51,0.28-0.77,0.28c-0.29,0-0.58-0.05-0.85-0.32
		c-0.27-0.27-0.48-0.73-0.48-1.43c0-0.61,0.15-1.23,0.51-1.6c0.24-0.24,0.51-0.32,0.8-0.32c0.36,0,0.59,0.13,0.76,0.28
		c0.33,0.32,0.46,0.89,0.46,1.37c0,0.11-0.01,0.23-0.02,0.35h-1.56c-0.01,0.06-0.01,0.13-0.01,0.2c0,0.23,0.03,0.51,0.14,0.62
		C20.75,67.96,20.82,68,20.9,68c0.08,0,0.15-0.02,0.2-0.06c0.11-0.09,0.14-0.37,0.15-0.48H22.09z M21.29,66.47
		c0-0.21-0.05-0.48-0.16-0.58c-0.06-0.05-0.13-0.07-0.18-0.07c-0.09,0-0.17,0.04-0.22,0.09c-0.1,0.11-0.15,0.38-0.15,0.55H21.29z"/>
	<path class="st4" d="M24.47,65.97c-0.05-0.01-0.09-0.02-0.14-0.02c-0.59,0-0.67,0.33-0.67,0.85v1.87h-0.99v-3.53h0.99v0.43
		c0.22-0.32,0.41-0.5,0.81-0.56L24.47,65.97L24.47,65.97z"/>
	<path class="st4" d="M27.21,67.45c-0.01,0.37-0.16,0.78-0.38,1.01c-0.25,0.25-0.51,0.28-0.77,0.28c-0.29,0-0.58-0.05-0.85-0.32
		c-0.27-0.27-0.48-0.73-0.48-1.43c0-0.61,0.15-1.23,0.51-1.6c0.24-0.24,0.51-0.32,0.8-0.32c0.36,0,0.59,0.13,0.76,0.28
		c0.33,0.32,0.46,0.89,0.46,1.37c0,0.11-0.01,0.23-0.02,0.35h-1.56c-0.01,0.06-0.01,0.13-0.01,0.2c0,0.23,0.03,0.51,0.14,0.62
		c0.06,0.06,0.13,0.09,0.21,0.09s0.15-0.02,0.2-0.06c0.11-0.09,0.14-0.37,0.15-0.48H27.21z M26.42,66.47c0-0.21-0.05-0.48-0.16-0.58
		c-0.06-0.05-0.13-0.07-0.18-0.07c-0.09,0-0.17,0.04-0.22,0.09c-0.1,0.11-0.15,0.38-0.15,0.55H26.42z"/>
	<path class="st4" d="M29.73,68.67V63.4h1.04v4.28h1.09v0.99L29.73,68.67L29.73,68.67z"/>
	<path class="st4" d="M32.75,64.61c-0.35,0-0.62-0.28-0.62-0.62c0-0.35,0.28-0.62,0.62-0.62s0.62,0.28,0.62,0.62
		C33.37,64.33,33.09,64.61,32.75,64.61z M32.25,68.67v-3.53h0.99v3.53H32.25z"/>
	<path class="st4" d="M35.61,68.61c-0.2,0.09-0.35,0.13-0.56,0.13c-0.95,0-1.29-0.99-1.29-1.79c0-0.86,0.32-1.88,1.35-1.88
		c0.19,0,0.32,0.03,0.5,0.1v0.87c-0.08-0.08-0.17-0.12-0.28-0.12c-0.47,0-0.58,0.59-0.58,0.96c0,0.37,0.08,0.94,0.56,0.94
		c0.1,0,0.21-0.04,0.29-0.1L35.61,68.61L35.61,68.61z"/>
	<path class="st4" d="M38.44,67.45c-0.01,0.37-0.16,0.78-0.38,1.01c-0.25,0.25-0.51,0.28-0.77,0.28c-0.29,0-0.58-0.05-0.85-0.32
		c-0.27-0.27-0.48-0.73-0.48-1.43c0-0.61,0.15-1.23,0.51-1.6c0.24-0.24,0.51-0.32,0.8-0.32c0.36,0,0.59,0.13,0.76,0.28
		c0.33,0.32,0.46,0.89,0.46,1.37c0,0.11-0.01,0.23-0.02,0.35h-1.56c-0.01,0.06-0.01,0.13-0.01,0.2c0,0.23,0.03,0.51,0.14,0.62
		c0.06,0.06,0.13,0.09,0.21,0.09s0.15-0.02,0.2-0.06c0.11-0.09,0.14-0.37,0.15-0.48H38.44z M37.64,66.47c0-0.21-0.05-0.48-0.16-0.58
		c-0.06-0.05-0.13-0.07-0.18-0.07c-0.09,0-0.17,0.04-0.22,0.09c-0.1,0.11-0.15,0.38-0.15,0.55H37.64z"/>
	<path class="st4" d="M40.52,68.67V66.5c0-0.16-0.01-0.44-0.24-0.44c-0.28,0-0.27,0.36-0.27,0.56v2.04h-0.99v-3.53h0.99v0.55
		c0.17-0.34,0.43-0.62,0.84-0.62c0.61,0,0.66,0.57,0.66,1.04v2.55L40.52,68.67L40.52,68.67z"/>
	<path class="st4" d="M43.79,66.09c-0.13-0.13-0.27-0.24-0.47-0.24c-0.15,0-0.25,0.1-0.25,0.25c0,0.43,1.11,0.34,1.11,1.41
		c0,0.67-0.4,1.22-1.11,1.22c-0.41,0-0.76-0.16-1.07-0.4l0.43-0.7c0.14,0.12,0.29,0.22,0.48,0.22c0.17,0,0.32-0.11,0.32-0.29
		c0-0.44-1.15-0.38-1.15-1.44c0-0.68,0.55-1.04,1.18-1.04c0.37,0,0.64,0.09,0.94,0.3L43.79,66.09z"/>
	<path class="st4" d="M46.98,67.45c-0.01,0.37-0.16,0.78-0.38,1.01c-0.24,0.25-0.51,0.28-0.77,0.28c-0.29,0-0.58-0.05-0.85-0.32
		c-0.27-0.27-0.48-0.73-0.48-1.43c0-0.61,0.15-1.23,0.51-1.6c0.24-0.24,0.51-0.32,0.8-0.32c0.36,0,0.59,0.13,0.76,0.28
		c0.33,0.32,0.46,0.89,0.46,1.37c0,0.11-0.01,0.23-0.02,0.35h-1.56c-0.01,0.06-0.01,0.13-0.01,0.2c0,0.23,0.03,0.51,0.14,0.62
		C45.65,67.96,45.72,68,45.8,68s0.15-0.02,0.2-0.06c0.11-0.09,0.14-0.37,0.15-0.48H46.98z M46.19,66.47c0-0.21-0.05-0.48-0.16-0.58
		c-0.06-0.05-0.13-0.07-0.18-0.07c-0.09,0-0.17,0.04-0.22,0.09c-0.1,0.11-0.15,0.38-0.15,0.55H46.19z"/>
	<path class="st4" d="M49.08,68.67v-0.4c-0.14,0.26-0.34,0.47-0.66,0.47c-0.81,0-0.96-1.25-0.96-1.85c0-0.62,0.12-1.82,0.95-1.82
		c0.32,0,0.54,0.22,0.66,0.5v-2.66h0.99v5.76L49.08,68.67L49.08,68.67z M48.81,65.96c-0.32,0-0.35,0.73-0.35,0.95
		c0,0.23,0.02,0.95,0.36,0.95c0.31,0,0.33-0.73,0.33-0.95C49.15,66.68,49.12,65.96,48.81,65.96z"/>
	<path class="st4" d="M55.19,68.56c-0.23,0.13-0.43,0.17-0.72,0.17c-0.51,0-0.89-0.12-1.25-0.47c-0.37-0.37-0.71-1.02-0.71-2.13
		c0-0.53,0.06-1.54,0.76-2.24c0.43-0.43,0.91-0.53,1.26-0.53c0.24,0,0.45,0.06,0.66,0.15v1.07c-0.2-0.18-0.41-0.23-0.58-0.23
		c-0.28,0-0.46,0.12-0.58,0.24c-0.28,0.28-0.43,0.83-0.43,1.51c0,0.13,0,0.97,0.37,1.38c0.12,0.13,0.31,0.25,0.59,0.25
		c0.17,0,0.41-0.06,0.62-0.25L55.19,68.56L55.19,68.56z"/>
	<path class="st4" d="M57.27,68.67v-0.4c-0.14,0.26-0.34,0.47-0.66,0.47c-0.81,0-0.96-1.25-0.96-1.85c0-0.62,0.12-1.82,0.95-1.82
		c0.32,0,0.54,0.22,0.66,0.5v-0.43h0.99v3.53L57.27,68.67L57.27,68.67z M57,65.96c-0.32,0-0.35,0.73-0.35,0.95
		c0,0.23,0.02,0.95,0.36,0.95c0.31,0,0.33-0.73,0.33-0.95C57.34,66.68,57.32,65.96,57,65.96z"/>
	<path class="st4" d="M60.69,65.97c-0.05-0.01-0.09-0.02-0.14-0.02c-0.59,0-0.67,0.33-0.67,0.85v1.87h-0.99v-3.53h0.99v0.43
		c0.22-0.32,0.41-0.5,0.81-0.56V65.97z"/>
	<path class="st4" d="M65.19,64.59c-0.21-0.18-0.46-0.34-0.75-0.34c-0.31,0-0.52,0.21-0.52,0.51c0,0.91,1.58,0.89,1.58,2.36
		c0,0.91-0.55,1.63-1.5,1.63c-0.32,0-0.64-0.09-0.91-0.27v-0.99c0.24,0.16,0.48,0.28,0.77,0.28c0.36,0,0.62-0.22,0.62-0.58
		c0-0.09-0.02-0.18-0.06-0.27c-0.09-0.2-0.39-0.37-0.56-0.49c-0.59-0.41-0.97-0.79-0.97-1.56c0-0.83,0.48-1.56,1.37-1.56
		c0.36,0,0.62,0.08,0.92,0.25L65.19,64.59L65.19,64.59z"/>
	<path class="st4" d="M68.37,67.45c-0.01,0.37-0.16,0.78-0.38,1.01c-0.25,0.25-0.51,0.28-0.77,0.28c-0.29,0-0.58-0.05-0.85-0.32
		c-0.27-0.27-0.48-0.73-0.48-1.43c0-0.61,0.15-1.23,0.51-1.6c0.24-0.24,0.51-0.32,0.8-0.32c0.36,0,0.59,0.13,0.76,0.28
		c0.33,0.32,0.46,0.89,0.46,1.37c0,0.11-0.01,0.23-0.02,0.35h-1.56c-0.01,0.06-0.01,0.13-0.01,0.2c0,0.23,0.03,0.51,0.14,0.62
		c0.06,0.06,0.13,0.09,0.21,0.09s0.15-0.02,0.2-0.06c0.11-0.09,0.14-0.37,0.15-0.48H68.37z M67.57,66.47c0-0.21-0.05-0.48-0.16-0.58
		c-0.06-0.05-0.13-0.07-0.18-0.07c-0.09,0-0.17,0.04-0.22,0.09c-0.1,0.11-0.15,0.38-0.15,0.55H67.57z"/>
	<path class="st4" d="M70.76,65.97c-0.05-0.01-0.09-0.02-0.14-0.02c-0.59,0-0.67,0.33-0.67,0.85v1.87h-0.99v-3.53h0.99v0.43
		c0.22-0.32,0.41-0.5,0.81-0.56V65.97z"/>
	<path class="st4" d="M72.82,68.67h-0.91l-1.01-3.53h0.97c0.17,0.66,0.35,1.33,0.48,2c0.02-0.15,0.07-0.29,0.1-0.43l0.36-1.56h1.03
		L72.82,68.67z"/>
	<path class="st4" d="M74.64,64.61c-0.35,0-0.62-0.28-0.62-0.62c0-0.35,0.28-0.62,0.62-0.62c0.35,0,0.62,0.28,0.62,0.62
		C75.27,64.33,74.99,64.61,74.64,64.61z M74.14,68.67v-3.53h0.99v3.53H74.14z"/>
	<path class="st4" d="M77.5,68.61c-0.2,0.09-0.35,0.13-0.56,0.13c-0.95,0-1.29-0.99-1.29-1.79c0-0.86,0.32-1.88,1.35-1.88
		c0.19,0,0.32,0.03,0.5,0.1v0.87c-0.08-0.08-0.17-0.12-0.28-0.12c-0.47,0-0.58,0.59-0.58,0.96c0,0.37,0.08,0.94,0.56,0.94
		c0.1,0,0.21-0.04,0.29-0.1L77.5,68.61L77.5,68.61z"/>
	<path class="st4" d="M80.33,67.45c-0.01,0.37-0.16,0.78-0.38,1.01c-0.25,0.25-0.51,0.28-0.77,0.28c-0.29,0-0.58-0.05-0.85-0.32
		c-0.27-0.27-0.48-0.73-0.48-1.43c0-0.61,0.15-1.23,0.51-1.6c0.24-0.24,0.51-0.32,0.8-0.32c0.36,0,0.59,0.13,0.76,0.28
		c0.33,0.32,0.46,0.89,0.46,1.37c0,0.11-0.01,0.23-0.02,0.35h-1.56c-0.01,0.06-0.01,0.13-0.01,0.2c0,0.23,0.03,0.51,0.14,0.62
		C79,67.96,79.07,68,79.15,68c0.08,0,0.15-0.02,0.2-0.06c0.11-0.09,0.14-0.37,0.15-0.48H80.33z M79.54,66.47
		c0-0.21-0.05-0.48-0.16-0.58c-0.06-0.05-0.13-0.07-0.18-0.07c-0.09,0-0.17,0.04-0.22,0.09c-0.1,0.11-0.15,0.38-0.15,0.55H79.54z"/>
</g>
<g>
	<path class="st3" d="M94.28,22.62l-0.73-3.28h-3.89l-0.7,3.28h-3.86l4.57-19.53h4.04l4.69,19.53H94.28z M92.96,16.32
		c-0.41-1.87-0.82-3.72-1.11-5.62c-0.12-0.85-0.23-1.73-0.32-2.58c-0.18,2.75-0.73,5.48-1.29,8.2L92.96,16.32L92.96,16.32z"/>
	<path class="st3" d="M99.99,22.62V3.09h3.86v15.87h4.04v3.66L99.99,22.62L99.99,22.62z"/>
	<path class="st3" d="M114.31,3.09c1.23,0,2.2,0.03,3.28,0.64c1.81,1.02,2.67,3.13,2.67,5.15c0,4.1-2.9,6-6.76,5.71v8.02h-3.86V3.09
		H114.31z M113.73,11.35c1.76,0,2.69-0.61,2.69-2.49c0-1.55-0.53-2.64-2.26-2.64h-0.67v5.12H113.73z"/>
	<path class="st3" d="M130.12,22.62v-8.64h-3.89v8.64h-3.86V3.09h3.86v7.23h3.89V3.09h3.86v19.53L130.12,22.62L130.12,22.62z"/>
	<path class="st3" d="M144.79,22.62l-0.73-3.28h-3.89l-0.7,3.28h-3.86l4.57-19.53h4.04l4.69,19.53H144.79z M143.48,16.32
		c-0.41-1.87-0.82-3.72-1.11-5.62c-0.12-0.85-0.23-1.73-0.32-2.58c-0.18,2.75-0.73,5.48-1.29,8.2L143.48,16.32L143.48,16.32z"/>
	<path class="st3" d="M96.01,45.13c-0.85,0.47-1.61,0.62-2.66,0.62c-1.87,0-3.31-0.44-4.63-1.76c-1.38-1.38-2.64-3.78-2.64-7.91
		c0-1.96,0.23-5.71,2.81-8.32c1.61-1.61,3.37-1.96,4.69-1.96c0.88,0,1.67,0.21,2.43,0.56v3.98c-0.73-0.67-1.52-0.85-2.14-0.85
		c-1.02,0-1.7,0.44-2.14,0.88c-1.05,1.05-1.61,3.07-1.61,5.59c0,0.5,0,3.6,1.38,5.12c0.44,0.5,1.14,0.94,2.2,0.94
		c0.64,0,1.52-0.21,2.31-0.94L96.01,45.13L96.01,45.13z"/>
	<path class="st3" d="M106.79,45.54l-0.73-3.28h-3.89l-0.7,3.28h-3.86L102.16,26h4.04l4.69,19.53H106.79z M105.47,39.24
		c-0.41-1.87-0.82-3.72-1.11-5.62c-0.12-0.85-0.23-1.73-0.32-2.58c-0.18,2.75-0.73,5.48-1.29,8.2L105.47,39.24L105.47,39.24z"/>
	<path class="st3" d="M119.79,45.54l-3.43-8.99v8.99h-3.86V26h4.19c1.43,0,3.02,0.12,4.25,0.94c1.55,1.02,2.31,2.93,2.31,4.74
		c0,2.23-0.88,3.81-2.78,4.98l3.4,8.87H119.79z M116.36,34.41c0.21,0.03,0.44,0.03,0.64,0.03c1.67,0,2.49-1.14,2.49-2.72
		c0-1.58-0.7-2.66-2.4-2.66h-0.73L116.36,34.41L116.36,34.41z"/>
	<path class="st3" d="M134.4,30.43c-0.79-0.67-1.7-1.26-2.78-1.26c-1.14,0-1.93,0.76-1.93,1.9c0,3.37,5.86,3.31,5.86,8.76
		c0,3.37-2.02,6.03-5.56,6.03c-1.2,0-2.37-0.32-3.37-1v-3.69c0.88,0.59,1.79,1.05,2.87,1.05c1.32,0,2.28-0.82,2.28-2.17
		c0-0.35-0.06-0.67-0.21-1c-0.35-0.73-1.43-1.38-2.08-1.81c-2.2-1.52-3.6-2.93-3.6-5.77c0-3.07,1.79-5.77,5.1-5.77
		c1.32,0,2.28,0.29,3.43,0.94L134.4,30.43L134.4,30.43z"/>
	<path class="st4" d="M94.28,68.45v-8.64h-3.89v8.64h-3.86V48.92h3.86v7.23h3.89v-7.23h3.86v19.53L94.28,68.45L94.28,68.45z"/>
	<path class="st4" d="M101.19,68.45V48.92h7.76v3.63h-3.89v4.22h3.43v3.69h-3.43v4.39h3.95v3.6H101.19z"/>
	<path class="st4" d="M118.88,68.45l-3.43-8.99v8.99h-3.86V48.92h4.19c1.43,0,3.02,0.12,4.25,0.94c1.55,1.02,2.31,2.93,2.31,4.74
		c0,2.23-0.88,3.81-2.78,4.98l3.4,8.87L118.88,68.45L118.88,68.45z M115.45,57.32c0.21,0.03,0.44,0.03,0.64,0.03
		c1.67,0,2.49-1.14,2.49-2.72c0-1.58-0.7-2.66-2.4-2.66h-0.73L115.45,57.32L115.45,57.32z"/>
	<path class="st4" d="M130.18,52.49v15.96h-3.86V52.49h-3.02v-3.57h9.9v3.57H130.18z"/>
	<path class="st4" d="M143.24,53.34c-0.79-0.67-1.7-1.26-2.78-1.26c-1.14,0-1.93,0.76-1.93,1.9c0,3.37,5.86,3.31,5.86,8.76
		c0,3.37-2.02,6.03-5.56,6.03c-1.2,0-2.37-0.32-3.37-1v-3.69c0.88,0.59,1.79,1.05,2.87,1.05c1.32,0,2.28-0.82,2.28-2.17
		c0-0.35-0.06-0.67-0.21-1c-0.35-0.73-1.43-1.38-2.08-1.81c-2.2-1.52-3.6-2.93-3.6-5.77c0-3.07,1.79-5.77,5.1-5.77
		c1.32,0,2.28,0.29,3.43,0.94L143.24,53.34L143.24,53.34z"/>
</g>
</svg>
