<?xml version="1.0" encoding="utf-8"?>
<!-- Generator: Adobe Illustrator 24.3.0, SVG Export Plug-In . SVG Version: 6.00 Build 0)  -->
<svg version="1.1" id="Layer_1" xmlns="http://www.w3.org/2000/svg" xmlns:xlink="http://www.w3.org/1999/xlink" x="0px" y="0px"
	 viewBox="0 0 1190.55 841.89" style="enable-background:new 0 0 1190.55 841.89;" xml:space="preserve">
<style type="text/css">
	.st0{clip-path:url(#SVGID_2_);fill:#A6A6A6;}
	.st1{clip-path:url(#SVGID_2_);}
	.st2{fill:#FFFFFF;}
	.st3{fill:#5798D6;}
	.st4{fill:#A6A6A6;}
</style>
<g>
	<defs>
		<rect id="SVGID_1_" x="26.8" y="97.55" width="608.18" height="382.35"/>
	</defs>
	<clipPath id="SVGID_2_">
		<use xlink:href="#SVGID_1_"  style="overflow:visible;"/>
	</clipPath>
	<rect x="-14.56" y="33.25" class="st0" width="694.99" height="465.87"/>
	<g class="st1">
		<polygon class="st2" points="341.07,281.28 432.36,281.28 432.36,199.97 411.73,199.97 		"/>
		<polygon class="st3" points="361.97,124.72 528.24,124.72 528.24,389.29 680.19,389.29 680.19,33.6 -14.28,33.6 -14.28,499.13 
			21.17,498.77 		"/>
		<polygon class="st2" points="152.6,499.35 432.36,499.35 432.36,365.02 268.31,365.02 		"/>
	</g>
</g>
<g>
	<path class="st3" d="M55.71,558.16l-2.38-10.66H40.68l-2.28,10.66H25.84l14.84-63.46h13.13l15.22,63.46H55.71z M51.43,537.71
		c-1.33-6.09-2.66-12.08-3.62-18.27c-0.38-2.76-0.76-5.61-1.05-8.37c-0.57,8.94-2.38,17.79-4.19,26.64H51.43z"/>
	<path class="st3" d="M74.26,558.16v-63.46h12.56v51.57h13.13v11.89H74.26z"/>
	<path class="st3" d="M120.79,494.71c4,0,7.14,0.09,10.66,2.09c5.9,3.33,8.66,10.18,8.66,16.74c0,13.32-9.42,19.5-21.98,18.55v26.07
		h-12.56v-63.46H120.79z M118.88,521.53c5.71,0,8.75-2,8.75-8.09c0-5.04-1.71-8.56-7.33-8.56h-2.19v16.65H118.88z"/>
	<path class="st3" d="M172.16,558.16V530.1h-12.65v28.07h-12.56v-63.46h12.56v23.5h12.65v-23.5h12.56v63.46H172.16z"/>
	<path class="st3" d="M219.83,558.16l-2.38-10.66h-12.65l-2.28,10.66h-12.56l14.84-63.46h13.13l15.22,63.46H219.83z M215.54,537.71
		c-1.33-6.09-2.66-12.08-3.62-18.27c-0.38-2.76-0.76-5.61-1.05-8.37c-0.57,8.94-2.38,17.79-4.19,26.64H215.54z"/>
	<path class="st3" d="M291.37,556.83c-2.76,1.52-5.23,2-8.66,2c-6.09,0-10.75-1.43-15.03-5.71c-4.47-4.47-8.56-12.27-8.56-25.69
		c0-6.37,0.76-18.55,9.13-27.02c5.23-5.23,10.94-6.37,15.22-6.37c2.85,0,5.42,0.67,7.9,1.81v12.94c-2.38-2.19-4.95-2.76-6.95-2.76
		c-3.33,0-5.52,1.43-6.95,2.85c-3.43,3.43-5.23,9.99-5.23,18.17c0,1.62,0,11.7,4.47,16.65c1.43,1.62,3.71,3.05,7.14,3.05
		c2.09,0,4.95-0.67,7.52-3.05V556.83z"/>
	<path class="st3" d="M326.38,558.16L324,547.51h-12.65l-2.28,10.66H296.5l14.84-63.46h13.13l15.22,63.46H326.38z M322.09,537.71
		c-1.33-6.09-2.66-12.08-3.62-18.27c-0.38-2.76-0.76-5.61-1.05-8.37c-0.57,8.94-2.38,17.79-4.19,26.64H322.09z"/>
	<path class="st3" d="M368.62,558.16l-11.13-29.21v29.21h-12.56v-63.46h13.61c4.66,0,9.8,0.38,13.8,3.04
		c5.04,3.33,7.52,9.51,7.52,15.41c0,7.23-2.85,12.37-9.04,16.17l11.04,28.83H368.62z M357.48,522.01c0.67,0.1,1.43,0.1,2.09,0.1
		c5.42,0,8.09-3.71,8.09-8.85s-2.28-8.66-7.8-8.66h-2.38V522.01z"/>
	<path class="st3" d="M416.09,509.07c-2.57-2.19-5.52-4.09-9.04-4.09c-3.71,0-6.28,2.47-6.28,6.18c0,10.94,19.03,10.75,19.03,28.45
		c0,10.94-6.56,19.6-18.08,19.6c-3.9,0-7.71-1.05-10.94-3.24v-11.99c2.85,1.9,5.8,3.43,9.32,3.43c4.28,0,7.42-2.66,7.42-7.04
		c0-1.14-0.19-2.19-0.67-3.24c-1.14-2.38-4.66-4.47-6.75-5.9c-7.14-4.95-11.7-9.51-11.7-18.74c0-9.99,5.8-18.74,16.55-18.74
		c4.28,0,7.42,0.95,11.13,3.05V509.07z"/>
	<path class="st3" d="M474.5,558.16V530.1h-12.65v28.07h-12.56v-63.46h12.56v23.5h12.65v-23.5h12.56v63.46H474.5z"/>
	<path class="st3" d="M496.96,558.16v-63.46h25.21v11.8h-12.65v13.7h11.13v11.99h-11.13v14.27h12.84v11.7H496.96z"/>
	<path class="st3" d="M554.42,558.16l-11.13-29.21v29.21h-12.56v-63.46h13.61c4.66,0,9.8,0.38,13.8,3.04
		c5.04,3.33,7.52,9.51,7.52,15.41c0,7.23-2.85,12.37-9.04,16.17l11.04,28.83H554.42z M543.29,522.01c0.67,0.1,1.43,0.1,2.09,0.1
		c5.42,0,8.09-3.71,8.09-8.85s-2.28-8.66-7.8-8.66h-2.38V522.01z"/>
	<path class="st3" d="M591.14,506.31v51.85h-12.56v-51.85h-9.8v-11.61h32.16v11.61H591.14z"/>
	<path class="st3" d="M633.57,509.07c-2.57-2.19-5.52-4.09-9.04-4.09c-3.71,0-6.28,2.47-6.28,6.18c0,10.94,19.03,10.75,19.03,28.45
		c0,10.94-6.56,19.6-18.08,19.6c-3.9,0-7.71-1.05-10.94-3.24v-11.99c2.85,1.9,5.8,3.43,9.32,3.43c4.28,0,7.42-2.66,7.42-7.04
		c0-1.14-0.19-2.19-0.67-3.24c-1.14-2.38-4.66-4.47-6.75-5.9c-7.14-4.95-11.7-9.51-11.7-18.74c0-9.99,5.8-18.74,16.55-18.74
		c4.28,0,7.42,0.95,11.13,3.05V509.07z"/>
</g>
<g>
	<path class="st4" d="M44.84,605.45v-17.94h-8.09v17.94h-8.03v-40.57h8.03v15.02h8.09v-15.02h8.03v40.57H44.84z"/>
	<path class="st4" d="M76.64,596.08c-0.06,2.86-1.22,6.02-2.92,7.79c-1.89,1.89-3.95,2.13-5.9,2.13c-2.25,0-4.44-0.37-6.51-2.43
		c-2.07-2.07-3.71-5.6-3.71-11.01c0-4.68,1.16-9.49,3.95-12.29c1.82-1.83,3.95-2.49,6.2-2.49c2.74,0,4.56,0.97,5.84,2.19
		c2.55,2.43,3.53,6.87,3.53,10.58c0,0.85-0.06,1.76-0.18,2.68H64.9c-0.06,0.43-0.06,0.97-0.06,1.52c0,1.76,0.24,3.89,1.09,4.8
		c0.43,0.49,0.97,0.73,1.58,0.73c0.61,0,1.16-0.18,1.52-0.49c0.85-0.73,1.09-2.86,1.16-3.71H76.64z M70.5,588.54
		c0-1.58-0.36-3.71-1.22-4.44c-0.43-0.37-0.97-0.55-1.4-0.55c-0.67,0-1.28,0.3-1.7,0.73c-0.79,0.85-1.16,2.92-1.16,4.26H70.5z"/>
	<path class="st4" d="M95.01,584.65c-0.37-0.06-0.73-0.12-1.09-0.12c-4.56,0-5.17,2.56-5.17,6.51v14.42h-7.6v-27.19h7.6v3.35
		c1.7-2.49,3.16-3.83,6.27-4.32V584.65z"/>
	<path class="st4" d="M107.29,584.59v20.86h-7.6v-20.86h-2.62v-6.33h2.62v-7.73h7.6v7.73h3.1v6.33H107.29z"/>
	<path class="st4" d="M125.66,585.62c-1.03-0.97-2.07-1.82-3.59-1.82c-1.16,0-1.95,0.79-1.95,1.95c0,3.28,8.52,2.61,8.52,10.83
		c0,5.17-3.1,9.43-8.58,9.43c-3.16,0-5.84-1.22-8.27-3.1l3.35-5.41c1.09,0.91,2.25,1.7,3.71,1.7c1.34,0,2.43-0.85,2.43-2.25
		c0-3.41-8.88-2.92-8.88-11.13c0-5.23,4.2-8.03,9.06-8.03c2.86,0,4.93,0.67,7.24,2.31L125.66,585.62z"/>
	<path class="st4" d="M155.09,605.45v-16.3c0-1.28-0.12-3.83-1.95-3.83c-2.25,0-1.95,3.22-1.95,4.74v15.39h-7.6V588.6
		c0-1.22-0.06-3.16-1.76-3.16c-2.13,0-2.13,2.62-2.13,4.14v15.88h-7.6v-27.19h7.6v4.38c1.52-2.62,3.47-4.87,6.75-4.87
		c2.92,0,4.14,2.07,4.74,4.62c1.28-2.37,3.59-4.62,6.45-4.62c4.38,0,5.05,3.95,5.05,7.48v20.19H155.09z"/>
	<path class="st4" d="M185.68,596.08c-0.06,2.86-1.22,6.02-2.92,7.79c-1.89,1.89-3.95,2.13-5.9,2.13c-2.25,0-4.44-0.37-6.51-2.43
		c-2.07-2.07-3.71-5.6-3.71-11.01c0-4.68,1.16-9.49,3.95-12.29c1.82-1.83,3.95-2.49,6.2-2.49c2.74,0,4.56,0.97,5.84,2.19
		c2.55,2.43,3.53,6.87,3.53,10.58c0,0.85-0.06,1.76-0.18,2.68h-12.04c-0.06,0.43-0.06,0.97-0.06,1.52c0,1.76,0.24,3.89,1.09,4.8
		c0.43,0.49,0.97,0.73,1.58,0.73c0.61,0,1.16-0.18,1.52-0.49c0.85-0.73,1.09-2.86,1.16-3.71H185.68z M179.54,588.54
		c0-1.58-0.36-3.71-1.22-4.44c-0.43-0.37-0.97-0.55-1.4-0.55c-0.67,0-1.28,0.3-1.7,0.73c-0.79,0.85-1.16,2.92-1.16,4.26H179.54z"/>
	<path class="st4" d="M204.05,584.65c-0.37-0.06-0.73-0.12-1.09-0.12c-4.56,0-5.17,2.56-5.17,6.51v14.42h-7.6v-27.19h7.6v3.35
		c1.7-2.49,3.16-3.83,6.27-4.32V584.65z"/>
	<path class="st4" d="M225.15,596.08c-0.06,2.86-1.22,6.02-2.92,7.79c-1.89,1.89-3.95,2.13-5.9,2.13c-2.25,0-4.44-0.37-6.51-2.43
		c-2.07-2.07-3.71-5.6-3.71-11.01c0-4.68,1.16-9.49,3.95-12.29c1.82-1.83,3.95-2.49,6.2-2.49c2.74,0,4.56,0.97,5.84,2.19
		c2.55,2.43,3.53,6.87,3.53,10.58c0,0.85-0.06,1.76-0.18,2.68h-12.04c-0.06,0.43-0.06,0.97-0.06,1.52c0,1.76,0.24,3.89,1.09,4.8
		c0.43,0.49,0.97,0.73,1.58,0.73c0.61,0,1.16-0.18,1.52-0.49c0.85-0.73,1.09-2.86,1.16-3.71H225.15z M219.01,588.54
		c0-1.58-0.36-3.71-1.22-4.44c-0.43-0.37-0.97-0.55-1.4-0.55c-0.67,0-1.28,0.3-1.7,0.73c-0.79,0.85-1.16,2.92-1.16,4.26H219.01z"/>
	<path class="st4" d="M244.55,605.45v-40.57h8.03v32.97h8.39v7.6H244.55z"/>
	<path class="st4" d="M267.78,574.19c-2.68,0-4.81-2.13-4.81-4.81s2.13-4.81,4.81-4.81c2.68,0,4.81,2.13,4.81,4.81
		S270.45,574.19,267.78,574.19z M263.95,605.45v-27.19h7.6v27.19H263.95z"/>
	<path class="st4" d="M289.79,605.02c-1.52,0.67-2.68,0.97-4.32,0.97c-7.3,0-9.91-7.66-9.91-13.81c0-6.63,2.49-14.48,10.4-14.48
		c1.46,0,2.49,0.24,3.83,0.79v6.69c-0.61-0.61-1.28-0.91-2.13-0.91c-3.65,0-4.44,4.56-4.44,7.36c0,2.86,0.61,7.24,4.32,7.24
		c0.79,0,1.58-0.3,2.25-0.79V605.02z"/>
	<path class="st4" d="M311.63,596.08c-0.06,2.86-1.22,6.02-2.92,7.79c-1.89,1.89-3.95,2.13-5.9,2.13c-2.25,0-4.44-0.37-6.51-2.43
		c-2.07-2.07-3.71-5.6-3.71-11.01c0-4.68,1.16-9.49,3.95-12.29c1.82-1.83,3.95-2.49,6.2-2.49c2.74,0,4.56,0.97,5.84,2.19
		c2.55,2.43,3.53,6.87,3.53,10.58c0,0.85-0.06,1.76-0.18,2.68h-12.04c-0.06,0.43-0.06,0.97-0.06,1.52c0,1.76,0.24,3.89,1.09,4.8
		c0.43,0.49,0.97,0.73,1.58,0.73c0.61,0,1.16-0.18,1.52-0.49c0.85-0.73,1.09-2.86,1.16-3.71H311.63z M305.48,588.54
		c0-1.58-0.36-3.71-1.22-4.44c-0.43-0.37-0.97-0.55-1.4-0.55c-0.67,0-1.28,0.3-1.7,0.73c-0.79,0.85-1.16,2.92-1.16,4.26H305.48z"/>
	<path class="st4" d="M327.62,605.45v-16.67c0-1.22-0.06-3.41-1.82-3.41c-2.19,0-2.07,2.8-2.07,4.32v15.75h-7.6v-27.19h7.6v4.26
		c1.34-2.62,3.28-4.75,6.45-4.75c4.68,0,5.05,4.38,5.05,8.03v19.65H327.62z"/>
	<path class="st4" d="M352.8,585.62c-1.03-0.97-2.07-1.82-3.59-1.82c-1.16,0-1.95,0.79-1.95,1.95c0,3.28,8.52,2.61,8.52,10.83
		c0,5.17-3.1,9.43-8.58,9.43c-3.16,0-5.84-1.22-8.27-3.1l3.35-5.41c1.09,0.91,2.25,1.7,3.71,1.7c1.34,0,2.43-0.85,2.43-2.25
		c0-3.41-8.88-2.92-8.88-11.13c0-5.23,4.2-8.03,9.06-8.03c2.86,0,4.93,0.67,7.24,2.31L352.8,585.62z"/>
	<path class="st4" d="M377.43,596.08c-0.06,2.86-1.22,6.02-2.92,7.79c-1.88,1.89-3.95,2.13-5.9,2.13c-2.25,0-4.44-0.37-6.51-2.43
		c-2.07-2.07-3.71-5.6-3.71-11.01c0-4.68,1.16-9.49,3.95-12.29c1.82-1.83,3.95-2.49,6.2-2.49c2.74,0,4.56,0.97,5.84,2.19
		c2.55,2.43,3.53,6.87,3.53,10.58c0,0.85-0.06,1.76-0.18,2.68h-12.04c-0.06,0.43-0.06,0.97-0.06,1.52c0,1.76,0.24,3.89,1.09,4.8
		c0.43,0.49,0.97,0.73,1.58,0.73c0.61,0,1.16-0.18,1.52-0.49c0.85-0.73,1.09-2.86,1.16-3.71H377.43z M371.29,588.54
		c0-1.58-0.36-3.71-1.22-4.44c-0.43-0.37-0.97-0.55-1.4-0.55c-0.67,0-1.28,0.3-1.7,0.73c-0.79,0.85-1.16,2.92-1.16,4.26H371.29z"/>
	<path class="st4" d="M393.54,605.45v-3.1c-1.09,2.01-2.62,3.65-5.05,3.65c-6.26,0-7.36-9.61-7.36-14.23
		c0-4.74,0.91-13.99,7.3-13.99c2.49,0,4.14,1.7,5.11,3.83v-20.5h7.6v44.34H393.54z M391.47,584.59c-2.49,0-2.68,5.6-2.68,7.3
		c0,1.76,0.18,7.3,2.74,7.3c2.37,0,2.56-5.66,2.56-7.3C394.09,590.18,393.91,584.59,391.47,584.59z"/>
	<path class="st4" d="M440.61,604.6c-1.76,0.97-3.35,1.28-5.54,1.28c-3.89,0-6.87-0.91-9.61-3.65c-2.86-2.86-5.47-7.85-5.47-16.42
		c0-4.08,0.49-11.86,5.84-17.27c3.35-3.35,6.99-4.08,9.73-4.08c1.83,0,3.47,0.43,5.05,1.16v8.27c-1.52-1.4-3.16-1.76-4.44-1.76
		c-2.13,0-3.53,0.91-4.44,1.82c-2.19,2.19-3.35,6.39-3.35,11.62c0,1.03,0,7.48,2.86,10.64c0.91,1.03,2.37,1.95,4.56,1.95
		c1.34,0,3.16-0.43,4.8-1.95V604.6z"/>
	<path class="st4" d="M456.67,605.45v-3.1c-1.09,2.01-2.62,3.65-5.05,3.65c-6.26,0-7.36-9.61-7.36-14.23
		c0-4.74,0.91-13.99,7.3-13.99c2.49,0,4.14,1.7,5.11,3.83v-3.35h7.6v27.19H456.67z M454.6,584.59c-2.49,0-2.68,5.6-2.68,7.3
		c0,1.76,0.18,7.3,2.74,7.3c2.37,0,2.56-5.66,2.56-7.3C457.22,590.18,457.03,584.59,454.6,584.59z"/>
	<path class="st4" d="M483,584.65c-0.36-0.06-0.73-0.12-1.09-0.12c-4.56,0-5.17,2.56-5.17,6.51v14.42h-7.6v-27.19h7.6v3.35
		c1.7-2.49,3.16-3.83,6.26-4.32V584.65z"/>
	<path class="st4" d="M517.67,574.07c-1.64-1.4-3.53-2.62-5.78-2.62c-2.37,0-4.01,1.58-4.01,3.95c0,7,12.17,6.87,12.17,18.19
		c0,6.99-4.2,12.53-11.56,12.53c-2.49,0-4.93-0.67-6.99-2.07v-7.66c1.82,1.22,3.71,2.19,5.96,2.19c2.74,0,4.75-1.7,4.75-4.5
		c0-0.73-0.12-1.4-0.43-2.07c-0.73-1.52-2.98-2.86-4.32-3.77c-4.56-3.16-7.48-6.08-7.48-11.98c0-6.39,3.71-11.98,10.58-11.98
		c2.74,0,4.74,0.61,7.12,1.95V574.07z"/>
	<path class="st4" d="M542.18,596.08c-0.06,2.86-1.22,6.02-2.92,7.79c-1.89,1.89-3.95,2.13-5.9,2.13c-2.25,0-4.44-0.37-6.51-2.43
		c-2.07-2.07-3.71-5.6-3.71-11.01c0-4.68,1.16-9.49,3.95-12.29c1.82-1.83,3.95-2.49,6.2-2.49c2.74,0,4.56,0.97,5.84,2.19
		c2.55,2.43,3.53,6.87,3.53,10.58c0,0.85-0.06,1.76-0.18,2.68h-12.04c-0.06,0.43-0.06,0.97-0.06,1.52c0,1.76,0.24,3.89,1.09,4.8
		c0.43,0.49,0.97,0.73,1.58,0.73s1.16-0.18,1.52-0.49c0.85-0.73,1.09-2.86,1.16-3.71H542.18z M536.03,588.54
		c0-1.58-0.37-3.71-1.22-4.44c-0.43-0.37-0.97-0.55-1.4-0.55c-0.67,0-1.28,0.3-1.7,0.73c-0.79,0.85-1.16,2.92-1.16,4.26H536.03z"/>
	<path class="st4" d="M560.54,584.65c-0.36-0.06-0.73-0.12-1.09-0.12c-4.56,0-5.17,2.56-5.17,6.51v14.42h-7.6v-27.19h7.6v3.35
		c1.7-2.49,3.16-3.83,6.26-4.32V584.65z"/>
	<path class="st4" d="M576.41,605.45h-6.99l-7.79-27.19h7.48c1.28,5.11,2.68,10.22,3.71,15.39c0.18-1.16,0.55-2.25,0.79-3.35
		l2.8-12.04h7.91L576.41,605.45z"/>
	<path class="st4" d="M590.46,574.19c-2.68,0-4.8-2.13-4.8-4.81s2.13-4.81,4.8-4.81c2.68,0,4.81,2.13,4.81,4.81
		S593.13,574.19,590.46,574.19z M586.63,605.45v-27.19h7.6v27.19H586.63z"/>
	<path class="st4" d="M612.48,605.02c-1.52,0.67-2.68,0.97-4.32,0.97c-7.3,0-9.91-7.66-9.91-13.81c0-6.63,2.49-14.48,10.4-14.48
		c1.46,0,2.49,0.24,3.83,0.79v6.69c-0.61-0.61-1.28-0.91-2.13-0.91c-3.65,0-4.44,4.56-4.44,7.36c0,2.86,0.61,7.24,4.32,7.24
		c0.79,0,1.58-0.3,2.25-0.79V605.02z"/>
	<path class="st4" d="M634.31,596.08c-0.06,2.86-1.22,6.02-2.92,7.79c-1.89,1.89-3.95,2.13-5.9,2.13c-2.25,0-4.44-0.37-6.51-2.43
		c-2.07-2.07-3.71-5.6-3.71-11.01c0-4.68,1.16-9.49,3.95-12.29c1.82-1.83,3.95-2.49,6.2-2.49c2.74,0,4.56,0.97,5.84,2.19
		c2.55,2.43,3.53,6.87,3.53,10.58c0,0.85-0.06,1.76-0.18,2.68h-12.04c-0.06,0.43-0.06,0.97-0.06,1.52c0,1.76,0.24,3.89,1.09,4.8
		c0.43,0.49,0.97,0.73,1.58,0.73c0.61,0,1.16-0.18,1.52-0.49c0.85-0.73,1.09-2.86,1.16-3.71H634.31z M628.16,588.54
		c0-1.58-0.37-3.71-1.22-4.44c-0.43-0.37-0.97-0.55-1.4-0.55c-0.67,0-1.28,0.3-1.7,0.73c-0.79,0.85-1.16,2.92-1.16,4.26H628.16z"/>
</g>
<g>
	<path class="st3" d="M741.75,250.77l-5.64-25.26h-30l-5.41,25.26h-29.77l35.19-150.44h31.13l36.09,150.44H741.75z M731.6,202.27
		c-3.16-14.44-6.32-28.64-8.57-43.31c-0.9-6.54-1.8-13.31-2.48-19.85c-1.35,21.2-5.64,42.18-9.92,63.15H731.6z"/>
	<path class="st3" d="M785.73,250.77V100.32h29.77v122.25h31.13v28.19H785.73z"/>
	<path class="st3" d="M896.02,100.32c9.47,0,16.92,0.23,25.26,4.96c13.98,7.89,20.53,24.13,20.53,39.69
		c0,31.58-22.33,46.24-52.1,43.98v61.8h-29.77V100.32H896.02z M891.51,163.93c13.53,0,20.75-4.73,20.75-19.17
		c0-11.95-4.06-20.3-17.37-20.3h-5.19v39.47H891.51z"/>
	<path class="st3" d="M1017.82,250.77v-66.54h-30v66.54h-29.77V100.32h29.77v55.71h30v-55.71h29.77v150.44H1017.82z"/>
	<path class="st3" d="M1130.82,250.77l-5.64-25.26h-30l-5.41,25.26h-29.77l35.18-150.44h31.13l36.09,150.44H1130.82z
		 M1120.66,202.27c-3.16-14.44-6.31-28.64-8.57-43.31c-0.9-6.54-1.8-13.31-2.48-19.85c-1.35,21.2-5.64,42.18-9.92,63.15H1120.66z"/>
	<path class="st3" d="M755.06,424.12c-6.54,3.61-12.4,4.74-20.52,4.74c-14.43,0-25.49-3.38-35.64-13.53
		c-10.6-10.6-20.3-29.09-20.3-60.9c0-15.11,1.8-43.98,21.65-64.05c12.4-12.4,25.94-15.11,36.09-15.11c6.77,0,12.85,1.58,18.72,4.28
		v30.67c-5.64-5.19-11.73-6.54-16.46-6.54c-7.89,0-13.08,3.38-16.47,6.77c-8.12,8.12-12.4,23.68-12.4,43.08
		c0,3.84,0,27.74,10.6,39.47c3.38,3.83,8.8,7.22,16.92,7.22c4.96,0,11.73-1.58,17.82-7.22V424.12z"/>
	<path class="st3" d="M838.06,427.28l-5.64-25.26h-30l-5.41,25.26h-29.77l35.19-150.44h31.13l36.09,150.44H838.06z M827.91,378.79
		c-3.16-14.44-6.32-28.64-8.57-43.31c-0.9-6.54-1.8-13.31-2.48-19.85c-1.35,21.2-5.64,42.18-9.92,63.15H827.91z"/>
	<path class="st3" d="M938.2,427.28l-26.39-69.24v69.24h-29.77V276.84h32.25c11.05,0,23.23,0.9,32.7,7.22
		c11.95,7.89,17.82,22.56,17.82,36.54c0,17.14-6.77,29.32-21.43,38.34l26.16,68.34H938.2z M911.81,341.57
		c1.58,0.22,3.38,0.22,4.96,0.22c12.86,0,19.17-8.79,19.17-20.98c0-12.18-5.41-20.52-18.5-20.52h-5.64V341.57z"/>
	<path class="st3" d="M1050.74,310.9c-6.09-5.19-13.08-9.7-21.43-9.7c-8.8,0-14.89,5.86-14.89,14.66
		c0,25.94,45.11,25.49,45.11,67.44c0,25.94-15.56,46.46-42.86,46.46c-9.25,0-18.27-2.48-25.94-7.67v-28.42
		c6.77,4.51,13.76,8.12,22.1,8.12c10.15,0,17.59-6.32,17.59-16.69c0-2.71-0.45-5.19-1.58-7.67c-2.71-5.64-11.05-10.6-16.01-13.98
		c-16.92-11.73-27.74-22.55-27.74-44.43c0-23.68,13.76-44.43,39.25-44.43c10.15,0,17.59,2.25,26.39,7.22V310.9z"/>
	<path class="st4" d="M741.75,603.79v-66.54h-30v66.54h-29.77V453.35h29.77v55.71h30v-55.71h29.77v150.44H741.75z"/>
	<path class="st4" d="M794.98,603.79V453.35h59.77v27.97h-30v32.48h26.39v28.42h-26.39v33.83h30.45v27.74H794.98z"/>
	<path class="st4" d="M931.21,603.79l-26.39-69.24v69.24h-29.77V453.35h32.25c11.05,0,23.23,0.9,32.7,7.22
		c11.95,7.89,17.82,22.56,17.82,36.54c0,17.14-6.77,29.32-21.43,38.34l26.16,68.34H931.21z M904.82,518.09
		c1.58,0.22,3.38,0.22,4.96,0.22c12.86,0,19.17-8.79,19.17-20.98c0-12.18-5.41-20.52-18.5-20.52h-5.64V518.09z"/>
	<path class="st4" d="M1018.27,480.87v122.92h-29.77V480.87h-23.23v-27.52h76.24v27.52H1018.27z"/>
	<path class="st4" d="M1118.86,487.41c-6.09-5.19-13.08-9.7-21.43-9.7c-8.79,0-14.89,5.86-14.89,14.66
		c0,25.94,45.11,25.49,45.11,67.44c0,25.94-15.56,46.46-42.85,46.46c-9.25,0-18.27-2.48-25.94-7.67v-28.42
		c6.77,4.51,13.76,8.12,22.11,8.12c10.15,0,17.59-6.32,17.59-16.69c0-2.71-0.45-5.19-1.58-7.67c-2.71-5.64-11.05-10.6-16.01-13.98
		c-16.92-11.73-27.74-22.55-27.74-44.43c0-23.68,13.76-44.43,39.25-44.43c10.15,0,17.59,2.25,26.39,7.22V487.41z"/>
</g>
</svg>
